# AST/ASF file generated using VICON BodyLanguage
# -----------------------------------------------
:version 1.10
:name VICON
:units
  mass 1.0
  length 0.45
  angle deg
:documentation
   .ast/.asf automatically generated from VICON data using
   VICON BodyBuilder and BodyLanguage model FoxedUp or BRILLIANT.MOD
:root
   order TX TY TZ RX RY RZ
   axis XYZ
   position 0 0 0  
   orientation 0 0 0 
:bonedata
  begin
     id 1 
     name lhipjoint
     direction 0.576517 -0.752066 0.319413 
     length 2.45433 
     axis 0 0 0  XYZ
  end
  begin
     id 2 
     name lfemur
     direction 0.34202 -0.939693 0  
     length 7.54459  
     axis 0 0 20  XYZ
    dof rx ry rz
    limits (-160.0 20.0)
           (-70.0 70.0)
           (-60.0 70.0)
  end
  begin
     id 3 
     name ltibia
     direction 0.34202 -0.939693 0   
     length 7.73986   
     axis 0 0 20   XYZ
    dof rx
    limits (-10.0 170.0)
  end
  begin
     id 4 
     name lfoot
     direction 0.090693 -0.249177 0.964202   
     length 2.28437   
     axis -90 7.62852e-016 20   XYZ
    dof rx rz
    limits (-45.0 90.0)
           (-70.0 20.0)
  end
  begin
     id 5 
     name ltoes
     direction 1.5356e-011 -4.21928e-011 1   
     length 1.14243   
     axis -90 7.62852e-016 20   XYZ
    dof rx
    limits (-90.0 20.0)
  end
  begin
     id 6 
     name rhipjoint
     direction -0.573937 -0.753736 0.320122   
     length 2.44889  
     axis 0 0 0  XYZ 
  end
  begin
     id 7 
     name rfemur
     direction -0.34202 -0.939693 0   
     length 7.50166   
     axis 0 0 -20   XYZ
    dof rx ry rz
    limits (-160.0 20.0)
           (-70.0 70.0)
           (-70.0 60.0)
  end
  begin
     id 8 
     name rtibia
     direction -0.34202 -0.939693 0   
     length 7.54266   
     axis 0 0 -20   XYZ
    dof rx
    limits (-10.0 170.0)
 end
 begin
     id 9 
     name rfoot
     direction -0.114017 -0.31326 0.942798   
     length 2.34212  
     axis -90 -7.62852e-016 -20   XYZ
    dof rx rz
    limits (-45.0 90.0)
           (-20.0 70.0)
  end
  begin
     id 10 
     name rtoes
     direction -1.53557e-011 -4.21867e-011 1   
     length 1.16246   
     axis -90 -7.62852e-016 -20   XYZ
    dof rx
    limits (-90.0 20.0)
  end
  begin
     id 11 
     name lowerback
     direction -0.0228371 0.999155 -0.034167   
     length 2.0537   
     axis 0 0 0   XYZ
    dof rx ry rz
    limits (-20.0 45.0)
           (-30.0 30.0)
           (-30.0 30.0)
  end
  begin
     id 12 
     name upperback
     direction 0.0198981 0.999794 0.00389455   
     length 2.05302   
     axis 0 0 0   XYZ
    dof rx ry rz
    limits (-20.0 45.0)
           (-30.0 30.0)
           (-30.0 30.0)
  end
  begin
     id 13 
     name thorax
     direction 0.0304566 0.99935 0.0192987   
     length 2.05315   
     axis 0 0 0   XYZ
    dof rx ry rz
    limits (-20.0 45.0)
           (-30.0 30.0)
           (-30.0 30.0)
  end
  begin
     id 14 
     name lowerneck
     direction -0.0196762 0.99417 0.106017   
     length 1.82056   
     axis 0 0 0   XYZ
    dof rx ry rz
    limits (-20.0 45.0)
           (-30.0 30.0)
           (-30.0 30.0)
  end
  begin
     id 15 
     name upperneck
     direction 0.00517787 0.9802 -0.197944   
     length 1.83835   
     axis 0 0 0   XYZ
    dof rx ry rz
    limits (-20.0 45.0)
           (-30.0 30.0)
           (-30.0 30.0)
  end
  begin
     id 16
     name head
     direction 0.00211419 0.996945 -0.078081  
     length 1.85629  
     axis 0 0 0   XYZ
    dof rx ry rz
    limits (-20.0 45.0)
           (-30.0 30.0)
           (-30.0 30.0)
  end
  begin
     id 17 
     name lclavicle
     direction 0.930001 0.365811 -0.0357824  
     length 3.81961  
     axis 0 0 0   XYZ
    dof ry rz
    limits (-20.0 10.0)
           (0.0 20.0)
  end
  begin
     id 18 
     name lhumerus
     direction 1 -4.48968e-011 -3.06644e-027   
     length 5.14507   
     axis 180 -30 -90   XYZ
    dof rx ry rz
    limits (-60.0 90.0)
           (-90.0 90.0)
           (-90.0 90.0)
  end
  begin
     id 19
     name lradius
     direction 1 -4.48965e-011 9.06925e-028   
     length 3.50646   
     axis 180 -30 -90   XYZ
    dof rx
    limits (-10.0 170.0)
  end
  begin
     id 20
     name lwrist
     direction 1 -4.48957e-011 1.03922e-027   
     length 1.75323   
     axis -2.56395e-016 90 90   XYZ
    dof ry
    limits (-180.0 0.0)
 end
  begin
     id 21 
     name lhand
     direction 1 -4.48967e-011 2.08017e-027   
     length 0.629969   
     axis -1.32723e-015 90 90   XYZ
    dof rx rz
    limits (-90.0 90.0)
           (-45.0 45.0)
  end
  begin
     id 22 
     name lfingers
     direction 1 -4.49089e-011 4.20095e-027   
     length 0.507897   
     axis -2.6545e-015 90 90   XYZ
    dof rx
    limits (0.0 90.0)
  end
  begin
     id 23
     name lthumb
     direction 0.707107 -6.35001e-011 0.707107   
     length 0.729241   
     axis -90 45 5.05613e-014   XYZ
    dof rx rz
    limits (-45.0 45.0)
           (-45.0 45.0)
  end
  begin
     id 24 
     name rclavicle
     direction -0.881882 0.464123 -0.0829113   
     length 3.47515  
     axis 0 0 0   XYZ 
    dof ry rz
    limits (-10.0 20.0)
           (-20.0 0.0)
  end
  begin
     id 25 
     name rhumerus
     direction -1 -4.48961e-011 -1.55672e-027  
     length 5.232   
     axis 180 30 90   XYZ
    dof rx ry rz
    limits (-90.0 60.0)
           (-90.0 90.0)
           (-90.0 90.0)
  end
  begin
     id 26 
     name rradius
     direction -1 -4.48963e-011 6.18178e-029   
     length 3.65641   
     axis 180 30 90   XYZ
    dof rx
    limits (-10.0 170.0)
  end
  begin
     id 27 
     name rwrist
     direction -1 -4.48982e-011 1.04136e-027   
     length 1.8282   
     axis -2.56395e-016 -90 -90   XYZ
    dof ry
    limits (-180.0 0.0)
  end
  begin
     id 28
     name rhand
     direction -1 -4.48929e-011 2.07378e-027   
     length 0.656807   
     axis -1.32723e-015 -90 -90   XYZ
    dof rx rz
    limits (-90.0 90.0)
           (-45.0 45.0)
  end
  begin
     id 29
     name rfingers
     direction -1 -4.489e-011 4.13816e-027   
     length 0.529535   
     axis -2.6545e-015 -90 -90   XYZ
    dof rx
    limits (0.0 90.0)
  end
  begin
     id 30
     name rthumb
     direction -0.707107 -6.34843e-011 0.707107   
     length 0.760309   
     axis -90 -45 -5.05613e-014   XYZ
    dof rx rz
    limits (-45.0 45.0)
           (-45.0 45.0)
  end
:hierarchy
  begin
    root lhipjoint rhipjoint lowerback
    lhipjoint lfemur
    lfemur ltibia
    ltibia lfoot
    lfoot ltoes
    rhipjoint rfemur
    rfemur rtibia
    rtibia rfoot
    rfoot rtoes
    lowerback upperback
    upperback thorax
    thorax lowerneck lclavicle rclavicle
    lowerneck upperneck
    upperneck head
    lclavicle lhumerus
    lhumerus lradius
    lradius lwrist
    lwrist lhand lthumb
    lhand lfingers
    rclavicle rhumerus
    rhumerus rradius
    rradius rwrist
    rwrist rhand rthumb
    rhand rfingers
  end

#!OML:ASF H:\ManfredETheater\Project 1\Capture day 1\Session 1\subject.ASF
:FULLY-SPECIFIED
:DEGREES
31
root 19.9971 14.2275 32.7853 -159.077 -51.127 -181.172
lowerback 37.8174 -1.60612 -1.46445
upperback 5.13806 -3.72008 -0.228691
thorax -12.8986 -2.02263 2.22224
lowerneck -14.1218 -5.67044 -5.99722
upperneck 1.84163 -6.83717 1.51511
head 3.39228 -3.48436 1.04853
rclavicle 2.38542e-014 -2.3059e-014
rhumerus -30.8645 -1.7607 -83.7422
rradius 50.0184
rwrist -2.94881
rhand -22.8767 -10.2956
rfingers 7.12502
rthumb 3.56214 -40.2456
lclavicle 2.38542e-014 -2.3059e-014
lhumerus -11.158 -9.33976 89.8577
lradius 75.4214
lwrist 2.49859
lhand -32.943 -13.9271
lfingers 7.12502
lthumb -6.1592 15.9633
rfemur -75.6102 -15.8248 19.0994
rtibia 87.7529
rfoot -16.1694 -17.3389
rtoes -26.5493
lfemur -54.0017 6.8175 -14.2034
ltibia 85.5938
lfoot -36.5969 -25.1189
ltoes 17.7663
32
root 19.928 14.194 32.4049 -159.218 -52.2462 -181
lowerback 38.3268 -1.67315 -1.46777
upperback 5.49449 -3.85388 -0.140808
thorax -12.6593 -2.1115 2.38178
lowerneck -13.7713 -5.74055 -6.1022
upperneck 1.91343 -6.92842 1.4921
head 3.35799 -3.53098 1.05997
rclavicle 6.75868e-014 4.53229e-014
rhumerus -30.8422 -2.02345 -83.654
rradius 49.4227
rwrist -2.52504
rhand -23.4337 -9.63148
rfingers 7.12502
rthumb 3.02424 -39.5898
lclavicle 6.75868e-014 4.53229e-014
lhumerus -10.7285 -9.37525 89.4571
lradius 76.7206
lwrist 2.48849
lhand -32.5865 -13.8621
lfingers 7.12502
lthumb -5.81496 16.0381
rfemur -76.9251 -15.8238 17.8588
rtibia 84.3937
rfoot -15.5536 -17.1125
rtoes -26.4313
lfemur -52.7159 6.70925 -12.4273
ltibia 85.2611
lfoot -36.6933 -26.962
ltoes 17.8025
33
root 19.855 14.1617 32.0192 -159.264 -53.3848 -180.863
lowerback 38.7557 -1.77459 -1.41007
upperback 5.85229 -4.00584 -0.0816207
thorax -12.3917 -2.21101 2.48247
lowerneck -13.3572 -5.81696 -6.24846
upperneck 1.95236 -7.02891 1.50273
head 3.30408 -3.58128 1.09136
rclavicle -5.56597e-015 -1.59028e-015
rhumerus -30.9152 -2.27208 -83.6523
rradius 48.9563
rwrist -2.00228
rhand -23.9917 -9.04714
rfingers 7.12502
rthumb 2.48534 -39.0124
lclavicle -5.56597e-015 -1.59028e-015
lhumerus -10.3586 -9.3188 89.0178
lradius 78.0219
lwrist 2.42906
lhand -32.2312 -13.7668
lfingers 7.12502
lthumb -5.47199 16.1425
rfemur -77.922 -15.9055 16.4949
rtibia 80.6836
rfoot -14.6849 -16.7757
rtoes -26.4294
lfemur -51.3963 6.56322 -10.6923
ltibia 84.7161
lfoot -36.8533 -28.5944
ltoes 17.9382
34
root 19.7777 14.132 31.6254 -159.288 -54.5462 -180.745
lowerback 39.1722 -1.89148 -1.31285
upperback 6.22222 -4.16298 -0.0323323
thorax -12.1066 -2.31543 2.55268
lowerneck -12.879 -5.89933 -6.43431
upperneck 1.94983 -7.13929 1.53649
head 3.22717 -3.63619 1.13902
rclavicle 6.36111e-015 6.91771e-014
rhumerus -31.0718 -2.46368 -83.7172
rradius 48.6203
rwrist -1.44869
rhand -24.2383 -8.73429
rfingers 7.12502
rthumb 2.24721 -38.7022
lclavicle 6.36111e-015 6.91771e-014
lhumerus -10.0607 -9.15652 88.5619
lradius 79.3246
lwrist 2.35081
lhand -31.8907 -13.6376
lfingers 7.12502
lthumb -5.14324 16.28
rfemur -78.51 -16.0506 15.0165
rtibia 76.6693
rfoot -13.5645 -16.3587
rtoes -26.5326
lfemur -49.9545 6.38285 -8.97853
ltibia 83.9495
lfoot -37.0793 -30.0049
ltoes 18.1406
35
root 19.6956 14.104 31.2256 -159.264 -55.7112 -180.634
lowerback 39.5342 -2.03266 -1.15296
upperback 6.59444 -4.32421 -0.00275375
thorax -11.8035 -2.42326 2.56802
lowerneck -12.3128 -5.98365 -6.6649
upperneck 1.89169 -7.25644 1.60097
head 3.11875 -3.69377 1.20747
rclavicle -7.07673e-014 5.56597e-015
rhumerus -31.3223 -2.57417 -83.8604
rradius 48.4183
rwrist -0.915801
rhand -24.2188 -8.6348
rfingers 7.12502
rthumb 2.26603 -38.6025
lclavicle -7.07673e-014 5.56597e-015
lhumerus -9.86423 -8.87751 88.0939
lradius 80.6331
lwrist 2.32831
lhand -31.6075 -13.4777
lfingers 7.12502
lthumb -4.86976 16.4464
rfemur -78.7529 -16.2293 13.4442
rtibia 72.4082
rfoot -12.165 -15.8909
rtoes -26.7466
lfemur -48.4616 6.18509 -7.29607
ltibia 82.9807
lfoot -37.3663 -31.1308
ltoes 18.1954
36
root 19.6077 14.0794 30.8181 -159.266 -56.879 -180.504
lowerback 39.8879 -2.18652 -0.934018
upperback 6.97872 -4.47902 0.0177221
thorax -11.4874 -2.53037 2.53904
lowerneck -11.6408 -6.06511 -6.9406
upperneck 1.75721 -7.37691 1.69482
head 2.96876 -3.75233 1.29735
rclavicle 7.31528e-014 -1.98785e-014
rhumerus -31.6579 -2.57262 -84.0725
rradius 48.3395
rwrist -0.486147
rhand -23.9691 -8.6654
rfingers 7.12502
rthumb 2.5072 -38.6304
lclavicle 7.31528e-014 -1.98785e-014
lhumerus -9.77653 -8.47341 87.631
lradius 81.9434
lwrist 2.40938
lhand -31.3823 -13.3038
lfingers 7.12502
lthumb -4.65229 16.6251
rfemur -78.5948 -16.4095 11.7946
rtibia 67.9797
rfoot -10.5813 -15.4505
rtoes -26.9765
lfemur -46.856 5.954 -5.61191
ltibia 81.8091
lfoot -37.6784 -32.0075
ltoes 18.023
37
root 19.514 14.0573 30.4024 -159.302 -58.0445 -180.345
lowerback 40.2273 -2.34526 -0.666507
upperback 7.37374 -4.62086 0.0337671
thorax -11.1573 -2.63287 2.47337
lowerneck -10.851 -6.14078 -7.25283
upperneck 1.5373 -7.50034 1.81112
head 2.77213 -3.81174 1.4054
rclavicle 4.37326e-014 1.35174e-014
rhumerus -32.0773 -2.42353 -84.3484
rradius 48.3844
rwrist -0.20782
rhand -23.4957 -8.82102
rfingers 7.12502
rthumb 2.9644 -38.7802
lclavicle 4.37326e-014 1.35174e-014
lhumerus -9.80606 -7.93869 87.1834
lradius 83.2506
lwrist 2.64056
lhand -31.2264 -13.117
lfingers 7.12502
lthumb -4.50179 16.8152
rfemur -78.1073 -16.5681 10.0983
rtibia 63.5959
rfoot -9.0016 -15.1511
rtoes -27.23
lfemur -45.1697 5.6762 -3.90539
ltibia 80.519
lfoot -37.9909 -32.6946
ltoes 17.5975
38
root 19.4149 14.0369 29.9785 -159.369 -59.1944 -180.141
lowerback 40.5071 -2.50499 -0.354381
upperback 7.78598 -4.74659 0.0405127
thorax -10.7917 -2.72903 2.36421
lowerneck -9.94068 -6.20777 -7.60326
upperneck 1.22485 -7.62507 1.95888
head 2.52779 -3.87065 1.53527
rclavicle -5.56597e-014 7.15625e-014
rhumerus -32.565 -2.14403 -84.7014
rradius 48.5369
rwrist -0.074992
rhand -22.8086 -9.02496
rfingers 7.12502
rthumb 3.62792 -38.9738
lclavicle -5.56597e-014 7.15625e-014
lhumerus -9.94821 -7.26383 86.7408
lradius 84.547
lwrist 3.04774
lhand -31.1208 -12.9431
lfingers 7.12502
lthumb -4.39976 16.9912
rfemur -77.3475 -16.6699 8.39673
rtibia 59.2995
rfoot -7.50928 -15.0798
rtoes -27.4491
lfemur -43.4449 5.3336 -2.15373
ltibia 79.0706
lfoot -38.1376 -33.2578
ltoes 16.8219
